<?xml version="1.0" encoding="utf-8"?>
<!-- Generator: Adobe Illustrator 23.0.4, SVG Export Plug-In . SVG Version: 6.00 Build 0)  -->
<svg version="1.1" id="Capa_1" xmlns="http://www.w3.org/2000/svg" xmlns:xlink="http://www.w3.org/1999/xlink" x="0px" y="0px"
	 viewBox="0 0 710 710" style="enable-background:new 0 0 710 710;" xml:space="preserve">
<style type="text/css">
	.st0{fill:#1BB1C3;}
	.st1{font-family:'KohinoorDevanagari-Bold';}
	.st2{font-size:65.5901px;}
</style>
<g>
	<g>
		<path class="st0" d="M561.3,270.7V160c0-47.1-36.9-85.5-82.2-85.5h-86.3c-5,0-9.1,4.3-9.1,9.5s4.1,9.5,9.1,9.5h86.3
			c35.3,0,63.9,29.8,63.9,66.5v100.7c-6.9-2.5-14.2-3.8-21.9-3.8h-1.8v-54.5c0-20.3-15.8-36.7-35.3-36.7H381
			c-10.4,0-19.7,4.7-26.2,12.1c-6.5-7.4-15.8-12.1-26.2-12.1H225.8c-19.5,0-35.3,16.5-35.3,36.7v54.5h-1.8c-7.7,0-15,1.4-21.9,3.8
			V160c0-36.7,28.7-66.5,63.9-66.5h88.1c5,0,9.1-4.3,9.1-9.5s-4.1-9.5-9.1-9.5h-88.1c-45.3,0-82.2,38.4-82.2,85.5v110.7
			c-16.6,12.8-27.4,33.4-27.4,56.5v121.6c0,5.2,4.1,9.5,9.1,9.5h18.3v41.8c0,5.2,4.1,9.5,9.1,9.5h49.3c5,0,9.1-4.3,9.1-9.5v-41.8
			h277.7v41.8c0,5.2,4.1,9.5,9.1,9.5h49.3c5,0,9.1-4.3,9.1-9.5v-41.8h18.3c5,0,9.1-4.3,9.1-9.5V327.2
			C588.7,304.1,577.9,283.5,561.3,270.7z M364,202.4c0-9.8,7.6-17.7,17.1-17.7h102.9c9.4,0,17.1,8,17.1,17.7v54.5H364V202.4z
			 M208.7,202.4c0-9.8,7.6-17.7,17.1-17.7h102.9c9.4,0,17.1,8,17.1,17.7v54.5h-137V202.4z M197.8,490.6h-31.1v-32.3h31.1V490.6z
			 M543,490.6h-31.1v-32.3H543V490.6z M570.4,393.7H205c-5,0-9.1,4.3-9.1,9.5s4.1,9.5,9.1,9.5h365.4v26.6h-18c-0.1,0-0.1,0-0.2,0
			h-49.3c-0.1,0-0.1,0-0.2,0H207.1c-0.1,0-0.1,0-0.2,0h-49.3c-0.1,0-0.1,0-0.2,0h-18V327.2c0-28.3,22.1-51.3,49.3-51.3h11h155.3
			h155.3h11c27.2,0,49.3,23,49.3,51.3V393.7z"/>
	</g>
</g>
<g>
	<g>
		<path class="st0" d="M362.3,77.4c-1.9-1.9-4.4-2.9-7.1-2.9s-5.2,1.1-7.1,2.9c-1.9,1.9-2.9,4.4-2.9,7.1c0,2.6,1.1,5.2,2.9,7.1
			s4.4,2.9,7.1,2.9s5.2-1.1,7.1-2.9s2.9-4.4,2.9-7.1C365.2,81.9,364.2,79.3,362.3,77.4z"/>
	</g>
</g>
<g>
	<g>
		<path class="st0" d="M175,396.5c-1.7-1.8-4.1-2.8-6.5-2.8c-2.4,0-4.8,1-6.5,2.8s-2.7,4.2-2.7,6.7s1,4.9,2.7,6.7
			c1.7,1.8,4.1,2.8,6.5,2.8c2.4,0,4.8-1,6.5-2.8s2.7-4.2,2.7-6.7S176.7,398.2,175,396.5z"/>
	</g>
</g>
<text transform="matrix(0.9532 0 0 1 118.1411 631.9196)" class="st0 st1 st2">Accommodation</text>
</svg>
