<?xml version="1.0" encoding="utf-8"?>
<!-- Generator: Adobe Illustrator 23.0.4, SVG Export Plug-In . SVG Version: 6.00 Build 0)  -->
<svg version="1.1" id="Capa_1" xmlns="http://www.w3.org/2000/svg" xmlns:xlink="http://www.w3.org/1999/xlink" x="0px" y="0px"
	 viewBox="0 0 468.2 432.8" style="enable-background:new 0 0 468.2 432.8;" xml:space="preserve">
<style type="text/css">
	.st0{fill:#1BB1C3;}
</style>
<g>
	<g>
		<path class="st0" d="M438.4,191.7V81c0-47.1-36.9-85.5-82.2-85.5h-86.3c-5,0-9.1,4.3-9.1,9.5s4.1,9.5,9.1,9.5h86.3
			c35.3,0,63.9,29.8,63.9,66.5v100.7c-6.9-2.5-14.2-3.8-21.9-3.8h-1.8v-54.5c0-20.3-15.8-36.7-35.3-36.7H258.2
			c-10.4,0-19.7,4.7-26.2,12.1c-6.5-7.4-15.8-12.1-26.2-12.1H102.9c-19.5,0-35.3,16.5-35.3,36.7v54.5h-1.8c-7.7,0-15,1.4-21.9,3.8
			V81c0-36.7,28.7-66.5,63.9-66.5h88.1c5,0,9.1-4.3,9.1-9.5s-4.1-9.5-9.1-9.5h-88.1C62.4-4.5,25.6,33.8,25.6,81v110.7
			C8.9,204.5-1.8,225-1.8,248.2v121.6c0,5.2,4.1,9.5,9.1,9.5h18.3v41.8c0,5.2,4.1,9.5,9.1,9.5H84c5,0,9.1-4.3,9.1-9.5v-41.8h277.7
			v41.8c0,5.2,4.1,9.5,9.1,9.5h49.3c5,0,9.1-4.3,9.1-9.5v-41.8h18.3c5,0,9.1-4.3,9.1-9.5V248.2C465.8,225,455,204.5,438.4,191.7z
			 M241.1,123.4c0-9.8,7.6-17.7,17.1-17.7h102.9c9.4,0,17.1,8,17.1,17.7v54.5h-137V123.4z M85.8,123.4c0-9.8,7.6-17.7,17.1-17.7
			h102.9c9.4,0,17.1,8,17.1,17.7v54.5h-137V123.4z M74.9,411.6H43.8v-32.3h31.1V411.6z M420.2,411.6h-31.1v-32.3h31.1V411.6z
			 M447.6,314.7H82.1c-5,0-9.1,4.3-9.1,9.5s4.1,9.5,9.1,9.5h365.4v26.6h-18c-0.1,0-0.1,0-0.2,0H380c-0.1,0-0.1,0-0.2,0H84.2
			c-0.1,0-0.1,0-0.2,0H34.7c-0.1,0-0.1,0-0.2,0h-18V248.2c0-28.3,22.1-51.3,49.3-51.3h11H232h155.3h11c27.2,0,49.3,23,49.3,51.3
			V314.7z"/>
	</g>
</g>
<g>
	<g>
		<path class="st0" d="M239.4-1.6c-1.9-1.9-4.4-2.9-7.1-2.9s-5.2,1.1-7.1,2.9s-2.9,4.4-2.9,7.1s1.1,5.2,2.9,7.1s4.4,2.9,7.1,2.9
			s5.2-1.1,7.1-2.9s2.9-4.4,2.9-7.1C242.4,2.8,241.3,0.3,239.4-1.6z"/>
	</g>
</g>
<g>
	<g>
		<path class="st0" d="M52.2,317.4c-1.7-1.8-4.1-2.8-6.5-2.8c-2.4,0-4.8,1-6.5,2.8c-1.7,1.8-2.7,4.2-2.7,6.7s1,4.9,2.7,6.7
			c1.7,1.8,4.1,2.8,6.5,2.8s4.8-1,6.5-2.8c1.7-1.8,2.7-4.2,2.7-6.7S53.9,319.2,52.2,317.4z"/>
	</g>
</g>
</svg>
