<?xml version="1.0" encoding="utf-8"?>
<!-- Generator: Adobe Illustrator 23.0.4, SVG Export Plug-In . SVG Version: 6.00 Build 0)  -->
<svg version="1.1" id="Layer_1" xmlns="http://www.w3.org/2000/svg" xmlns:xlink="http://www.w3.org/1999/xlink" x="0px" y="0px"
	 viewBox="0 0 200 83" style="enable-background:new 0 0 200 83;" xml:space="preserve">
<style type="text/css">
	.st0{fill:#FFFFFF;}
</style>
<g id="dito_text_white">
	<path class="st0" d="M49.9,49.1l-1.3,9.5h-5.9l1.3-9.5h-5.3l-1.3,9.5h-5.9l1.4-9.5h-4.9l0.8-5.8h4.9l0.7-5.3h-4.9l0.8-5.8h4.9
		l1.3-9.4h6.3l-1.3,9.4h4.6l1.3-9.4h6.2l-1.3,9.4h5.5L57,38.1h-5.5l-0.8,5.3h5.5l-0.8,5.8H49.9z M45.6,38.1h-5.3l-0.7,5.3h5.3
		L45.6,38.1z"/>
	<path class="st0" d="M75.1,33.2v25.4H64.5V22.9h13.8c6.1,0,10.8,1.4,14.3,4.1c4.1,3.3,6.1,7.8,6.1,13.4c0,5.4-1.7,9.8-5.2,13.2
		c-3.5,3.4-8,5.1-13.5,5.1c-0.6,0-1.7,0-3.2-0.1V48.3h1.7c6.2,0,9.3-2.6,9.3-7.8c0-4.9-3-7.3-9.1-7.3H75.1z"/>
	<path class="st0" d="M112.8,32.6v26.1H103V32.6H112.8z M107.9,20.9c1.3,0,2.5,0.5,3.4,1.4s1.5,2,1.5,3.3c0,1.4-0.5,2.5-1.4,3.3
		c-0.9,0.9-2.1,1.3-3.5,1.3c-1.4,0-2.6-0.4-3.5-1.3c-0.9-0.9-1.4-2-1.4-3.3c0-1.3,0.5-2.4,1.5-3.3S106.6,20.9,107.9,20.9z"/>
	<path class="st0" d="M134.8,33.2v25.4h-10.6V33.2H116V22.9h26.9v10.3H134.8z"/>
	<path class="st0" d="M168,36c-0.4-0.4-0.7-0.7-1.1-1l-5.9,7.9c0.7,0.7,1,1.6,1,2.7c0,1.1-0.4,2-1.1,2.8c-0.7,0.8-1.6,1.2-2.7,1.2
		c-1,0-1.9-0.4-2.7-1.2c-0.7-0.8-1.1-1.7-1.1-2.8c0-1.1,0.4-2,1.1-2.8c0.7-0.8,1.6-1.1,2.7-1.1c0.4,0,0.7,0.1,1.1,0.2l5.9-8
		c-2-1.2-4.3-1.8-6.7-1.8c-3.9,0-7.3,1.3-9.9,3.9c-2.7,2.6-4,5.8-4,9.6c0,3.7,1.3,7,4,9.6c2.7,2.7,5.9,4,9.7,4s7-1.3,9.7-4
		c2.7-2.6,4-5.9,4-9.6C171.9,41.8,170.6,38.7,168,36z"/>
</g>
</svg>
