<?xml version="1.0" encoding="utf-8"?>
<!-- Generator: Adobe Illustrator 23.0.4, SVG Export Plug-In . SVG Version: 6.00 Build 0)  -->
<svg version="1.1" id="Layer_1" xmlns="http://www.w3.org/2000/svg" xmlns:xlink="http://www.w3.org/1999/xlink" x="0px" y="0px"
	 viewBox="0 0 200 83" style="enable-background:new 0 0 200 83;" xml:space="preserve">
<style type="text/css">
	.st0{stroke:#000000;stroke-miterlimit:10;}
</style>
<g id="Dito_text_black">
	<path d="M54.9,40.1l-1.3,9.5h-5.9l1.3-9.5h-5.3l-1.3,9.5h-5.9l1.4-9.5H33l0.8-5.8h4.9l0.7-5.3h-4.9l0.8-5.8h4.9l1.3-9.4h6.3
		l-1.3,9.4h4.6l1.3-9.4h6.2l-1.3,9.4h5.5L62,29.1h-5.5l-0.8,5.3h5.5l-0.8,5.8L54.9,40.1L54.9,40.1z M50.6,29.1h-5.3l-0.7,5.3h5.3
		L50.6,29.1z"/>
	<path d="M80.1,24.2v25.4H69.5V13.9h13.8c6.1,0,10.8,1.4,14.3,4.1c4.1,3.3,6.1,7.8,6.1,13.4c0,5.4-1.7,9.8-5.2,13.2s-8,5.1-13.5,5.1
		c-0.6,0-1.7,0-3.2-0.1V39.3h1.7c6.2,0,9.3-2.6,9.3-7.8c0-4.9-3-7.3-9.1-7.3H80.1z"/>
	<path d="M117.8,23.6v26.1H108V23.6H117.8z M112.9,11.9c1.3,0,2.5,0.5,3.4,1.4s1.5,2,1.5,3.3c0,1.4-0.5,2.5-1.4,3.3
		c-0.9,0.9-2.1,1.3-3.5,1.3s-2.6-0.4-3.5-1.3s-1.4-2-1.4-3.3s0.5-2.4,1.5-3.3S111.6,11.9,112.9,11.9z"/>
	<path d="M139.8,24.2v25.4h-10.6V24.2H121V13.9h26.9v10.3H139.8z"/>
	<path d="M173,27c-0.4-0.4-0.7-0.7-1.1-1l-5.9,7.9c0.7,0.7,1,1.6,1,2.7c0,1.1-0.4,2-1.1,2.8c-0.7,0.8-1.6,1.2-2.7,1.2
		c-1,0-1.9-0.4-2.7-1.2c-0.7-0.8-1.1-1.7-1.1-2.8s0.4-2,1.1-2.8c0.7-0.8,1.6-1.1,2.7-1.1c0.4,0,0.7,0.1,1.1,0.2l5.9-8
		c-2-1.2-4.3-1.8-6.7-1.8c-3.9,0-7.3,1.3-9.9,3.9c-2.7,2.6-4,5.8-4,9.6c0,3.7,1.3,7,4,9.6c2.7,2.7,5.9,4,9.7,4s7-1.3,9.7-4
		c2.7-2.6,4-5.9,4-9.6C176.9,32.8,175.6,29.7,173,27z"/>
</g>
<g>
	<defs>
		<rect id="SVGID_1_" x="-567" y="32" width="1920" height="1785"/>
	</defs>
	<clipPath id="SVGID_2_">
		<use xlink:href="#SVGID_1_"  style="overflow:visible;"/>
	</clipPath>
	<g style="clip-path:url(#SVGID_2_);">
		<text transform="matrix(1 0 0 1 0 1068)" style="fill:#4A4A4A; font-family:'HelveticaNeue-Bold'; font-size:16px;">003 000</text>
	</g>
</g>
<g>
	<defs>
		<rect id="SVGID_3_" x="-567" y="32" width="1920" height="1785"/>
	</defs>
	<clipPath id="SVGID_4_">
		<use xlink:href="#SVGID_3_"  style="overflow:visible;"/>
	</clipPath>
	<g style="clip-path:url(#SVGID_4_);">
		<text transform="matrix(1 0 0 1 0 1068)" style="fill:#4A4A4A; font-family:'HelveticaNeue-Bold'; font-size:16px;">003 000</text>
	</g>
</g>
<g>
	<path d="M36.3,60.6h3.2c3.3,0,4.8,1.6,4.8,4.9c0,2.6-1,5.4-4.8,5.4h-3.2V60.6z M38.5,69h0.8c2.1,0,2.7-1.3,2.7-3.3
		c0-2.5-1.1-3.3-2.7-3.3h-0.8V69z"/>
	<path d="M47.1,59.1c0.7,0,1.3,0.6,1.3,1.3c0,0.7-0.6,1.2-1.3,1.2c-0.7,0-1.3-0.6-1.3-1.2C45.8,59.6,46.4,59.1,47.1,59.1z M46,62.6
		h2.2v8.3H46V62.6z"/>
	<path d="M50,65c0-1.3,1.2-2.6,3.1-2.6c1.5,0,2.4,0.5,3,1.2L54.6,65c-0.3-0.3-0.9-0.8-1.6-0.8c-0.5,0-0.8,0.3-0.8,0.6
		c0,1.2,3.9,0.8,3.9,3.6c0,1.1-0.9,2.6-3.3,2.6c-1.8,0-2.9-0.8-3.4-1.2l1.3-1.5c0.4,0.4,1.2,1,2.2,1c0.7,0,1-0.3,1-0.7
		C53.9,67.3,50,67.7,50,65z"/>
	<path d="M57.7,68.2v-3.9h-1.1v-1.4l1.1-0.4l0.8-1.9h1.4v2.1H62v1.7h-2.1v4c0,0.6,0.3,0.9,0.9,0.9c0.4,0,0.8-0.1,1.1-0.4l0.6,1.7
		c-0.3,0.2-0.9,0.5-2.3,0.5C58.8,70.9,57.7,70.2,57.7,68.2z"/>
	<path d="M69.4,65.2v3.3c0,0.5,0.2,0.7,0.6,0.7h0.2v1.5c-0.4,0.2-0.7,0.3-1.1,0.3c-0.8,0-1.2-0.4-1.5-0.9h-0.1
		c-0.3,0.4-0.9,0.9-2.1,0.9c-1.6,0-2.4-1.1-2.4-2.3c0-1.9,1.7-2.8,4.3-2.7v-0.6c0-0.9-0.5-1.2-1.2-1.2c-0.8,0-1.2,0.5-1.4,0.9
		L63.1,64c0.3-0.5,1.1-1.6,3-1.6C68.2,62.4,69.4,63.1,69.4,65.2z M67.3,67.5c-1.5-0.1-2.2,0.2-2.2,1c0,0.5,0.3,0.8,0.9,0.8
		c0.5,0,1-0.2,1.3-0.6V67.5z"/>
	<path d="M78.5,70.8h-2.2v-5.3c0-0.8-0.4-1.3-1.1-1.3c-0.6,0-1.2,0.4-1.4,1v5.6h-2.2v-8.3h1.7l0.4,0.8h0.1c0.5-0.6,1.4-1,2.2-1
		c1.6,0,2.5,0.9,2.5,2.8V70.8z"/>
	<path d="M80.6,68.2v-3.9h-1.1v-1.4l1.1-0.4l0.8-1.9h1.4v2.1h2.1v1.7h-2.1v4c0,0.6,0.3,0.9,0.9,0.9c0.4,0,0.8-0.1,1.1-0.4l0.6,1.7
		c-0.3,0.2-0.9,0.5-2.3,0.5C81.6,70.9,80.6,70.2,80.6,68.2z"/>
	<path d="M90.4,59.7h2.2v3.2h0.1c0.3-0.2,0.9-0.5,1.6-0.5c1.9,0,3.3,1,3.3,4.1c0,2.5-1.5,4.4-4.2,4.4c-1.4,0-2.2-0.2-2.9-0.5V59.7z
		 M95.3,66.7c0-1.8-0.6-2.4-1.6-2.4c-0.5,0-0.9,0.2-1.1,0.4v4.4c0.2,0.1,0.5,0.1,0.8,0.1C94.6,69.2,95.3,68.5,95.3,66.7z"/>
	<path d="M99,62.6h2.2v5.3c0,0.9,0.4,1.4,1.2,1.4c1,0,1.3-0.7,1.4-1v-5.7h2.2v8.3h-1.9l-0.3-0.8h-0.1c-0.5,0.6-1.1,0.9-2.2,0.9
		c-1.8,0-2.6-0.9-2.6-2.9V62.6z"/>
	<path d="M108.3,68.2v-3.9h-1.1v-1.4l1.1-0.4l0.8-1.9h1.4v2.1h2.1v1.7h-2.1v4c0,0.6,0.3,0.9,0.9,0.9c0.4,0,0.8-0.1,1.1-0.4l0.6,1.7
		c-0.3,0.2-0.9,0.5-2.3,0.5C109.3,70.9,108.3,70.2,108.3,68.2z"/>
	<path d="M118.3,68.2v-3.9h-1.1v-1.4l1.1-0.4l0.8-1.9h1.4v2.1h2.1v1.7h-2.1v4c0,0.6,0.3,0.9,0.9,0.9c0.4,0,0.8-0.1,1.1-0.4l0.6,1.7
		c-0.3,0.2-0.9,0.5-2.3,0.5C119.3,70.9,118.3,70.2,118.3,68.2z"/>
	<path d="M123.5,66.7c0-2.5,1.1-4.3,3.8-4.3c2.9,0,3.8,1.7,3.8,4.3c0,2.5-1.1,4.3-3.8,4.3C124.4,71,123.5,69.3,123.5,66.7z
		 M127.3,69.3c1.1,0,1.5-0.8,1.5-2.5c0-1.7-0.4-2.6-1.6-2.6c-1,0-1.5,0.8-1.5,2.5C125.8,68.4,126.2,69.3,127.3,69.3z"/>
	<path d="M139.3,70.5c0,2.3-1.6,3.4-3.8,3.4c-2,0-2.9-0.6-3.3-1.1l1.2-1.6c0.4,0.6,1.2,1,2.1,1c1.1,0,1.6-0.4,1.6-1.6V70h-0.1
		c-0.3,0.3-0.9,0.5-1.6,0.5c-1.7,0-3.3-0.8-3.3-3.8c0-2.3,1.3-4.2,4-4.2c1.5,0,2.3,0.2,3.1,0.5V70.5z M136.2,64.2
		c-1.2,0-1.8,0.8-1.8,2.4c0,1.7,0.6,2.1,1.6,2.1c0.5,0,0.9-0.1,1.2-0.4v-3.9C136.8,64.2,136.6,64.2,136.2,64.2z"/>
	<path d="M147.8,70.1c-0.6,0.5-1.5,0.9-3,0.9c-2.6,0-3.9-1.5-3.9-4.3c0-2.7,1.5-4.3,3.9-4.3c2.1,0,3.3,1.3,3.3,3.4
		c0,0.4,0,0.8-0.1,1.5H143c0,1.3,0.6,2,2,2c0.9,0,1.5-0.4,1.8-0.7L147.8,70.1z M143.1,65.8h2.9v-0.2c0-1-0.4-1.5-1.3-1.5
		C143.7,64.1,143.1,64.8,143.1,65.8z"/>
	<path d="M149.8,68.2v-3.9h-1.1v-1.4l1.1-0.4l0.8-1.9h1.4v2.1h2.1v1.7H152v4c0,0.6,0.3,0.9,0.9,0.9c0.4,0,0.8-0.1,1.1-0.4l0.6,1.7
		c-0.3,0.2-0.9,0.5-2.3,0.5C150.9,70.9,149.8,70.2,149.8,68.2z"/>
	<path d="M162.5,65.3v5.6h-2.2v-5.1c0-0.9-0.4-1.3-1.1-1.3c-0.5,0-1.1,0.4-1.4,0.9v5.6h-2.2V59.7h2.2v3.7h0.1
		c0.5-0.5,1.2-0.9,2.2-0.9C161.6,62.5,162.5,63.4,162.5,65.3z"/>
	<path d="M171,70.1c-0.6,0.5-1.5,0.9-3,0.9c-2.6,0-3.9-1.5-3.9-4.3c0-2.7,1.5-4.3,3.9-4.3c2.1,0,3.3,1.3,3.3,3.4
		c0,0.4,0,0.8-0.1,1.5h-4.9c0,1.3,0.6,2,2,2c0.9,0,1.5-0.4,1.8-0.7L171,70.1z M166.3,65.8h2.9v-0.2c0-1-0.4-1.5-1.3-1.5
		C166.9,64.1,166.3,64.8,166.3,65.8z"/>
	<path d="M177.9,64.6c-0.3-0.1-0.7-0.1-1-0.1c-0.7,0-1.5,0.3-1.9,0.7v5.6h-2.2v-8.3h1.7l0.5,1.2h0.1c0.3-0.8,1.1-1.4,2.1-1.4
		c0.2,0,0.5,0,0.7,0.1V64.6z"/>
</g>
<line class="st0" x1="34" y1="55" x2="178" y2="55"/>
</svg>
