<?xml version="1.0" encoding="utf-8"?>
<!-- Generator: Adobe Illustrator 23.0.4, SVG Export Plug-In . SVG Version: 6.00 Build 0)  -->
<svg version="1.1" id="Layer_1" xmlns="http://www.w3.org/2000/svg" xmlns:xlink="http://www.w3.org/1999/xlink" x="0px" y="0px"
	 viewBox="0 0 221 218" style="enable-background:new 0 0 221 218;" xml:space="preserve">
<style type="text/css">
	.st0{fill:#FFFFFF;}
</style>
<g id="dito_circle_black">
	<path d="M66.9,115.1l-1.3,9.5h-5.9l1.3-9.5h-5.3l-1.3,9.5h-5.9l1.4-9.5h-4.9l0.8-5.8h4.9l0.7-5.3h-4.9l0.8-5.8h4.9l1.3-9.4h6.3
		l-1.3,9.4h4.6l1.3-9.4h6.2l-1.3,9.4h5.5l-0.8,5.8h-5.5l-0.8,5.3h5.5l-0.8,5.8H66.9z M62.6,104.1h-5.3l-0.7,5.3h5.3L62.6,104.1z"/>
	<path d="M92.1,99.2v25.4H81.5V88.9h13.8c6.1,0,10.8,1.4,14.3,4.1c4.1,3.3,6.1,7.8,6.1,13.4c0,5.4-1.7,9.8-5.2,13.2
		c-3.5,3.4-8,5.1-13.5,5.1c-0.6,0-1.7,0-3.2-0.1v-10.5h1.7c6.2,0,9.3-2.6,9.3-7.8c0-4.9-3-7.3-9.1-7.3H92.1z"/>
	<path d="M129.8,98.6v26.1H120V98.6H129.8z M124.9,86.9c1.3,0,2.5,0.5,3.4,1.4s1.5,2,1.5,3.3c0,1.4-0.5,2.5-1.4,3.3
		c-0.9,0.9-2.1,1.3-3.5,1.3c-1.4,0-2.6-0.4-3.5-1.3c-0.9-0.9-1.4-2-1.4-3.3c0-1.3,0.5-2.4,1.5-3.3S123.6,86.9,124.9,86.9z"/>
	<path d="M151.8,99.2v25.4h-10.6V99.2H133V88.9h26.9v10.3H151.8z"/>
	<path d="M185,102c-0.4-0.4-0.7-0.7-1.1-1l-5.9,7.9c0.7,0.7,1,1.6,1,2.7c0,1.1-0.4,2-1.1,2.8c-0.7,0.8-1.6,1.2-2.7,1.2
		c-1,0-1.9-0.4-2.7-1.2c-0.7-0.8-1.1-1.7-1.1-2.8c0-1.1,0.4-2,1.1-2.8c0.7-0.8,1.6-1.1,2.7-1.1c0.4,0,0.7,0.1,1.1,0.2l5.9-8
		c-2-1.2-4.3-1.8-6.7-1.8c-3.9,0-7.3,1.3-9.9,3.9c-2.7,2.6-4,5.8-4,9.6c0,3.7,1.3,7,4,9.6c2.7,2.7,5.9,4,9.7,4s7-1.3,9.7-4
		c2.7-2.6,4-5.9,4-9.6C188.9,107.8,187.6,104.7,185,102z"/>
	<g id="Dito_balck">
		<g>
			<path d="M181,39.8l-10.7,14.7c14,13.9,22.6,33.2,22.6,54.5c0,42.5-34.5,77-77,77s-77-34.5-77-77s34.5-77,77-77
				c13.7,0,26.5,3.6,37.6,9.8l10.6-14.7C150.1,18.8,133.6,14,116,14c-52.5,0-95,42.5-95,95s42.5,95,95,95s95-42.5,95-95
				C211,81.7,199.5,57.1,181,39.8z"/>
		</g>
	</g>
</g>
</svg>
