<?xml version="1.0" encoding="utf-8"?>
<!-- Generator: Adobe Illustrator 23.0.4, SVG Export Plug-In . SVG Version: 6.00 Build 0)  -->
<svg version="1.1" id="Capa_1" xmlns="http://www.w3.org/2000/svg" xmlns:xlink="http://www.w3.org/1999/xlink" x="0px" y="0px"
	 viewBox="0 0 496 456.3" style="enable-background:new 0 0 496 456.3;" xml:space="preserve">
<style type="text/css">
	.st0{fill:#1BB1C3;}
</style>
<path class="st0" d="M368.3,3.6H147.1C68.2,3.6,4,68.9,4,149.2v97.1c0,5.4,4.3,9.7,9.5,9.7s9.5-4.3,9.5-9.7v-58.3h15.5
	c5.3,0,9.5-4.3,9.5-9.7c0-5.4-4.3-9.7-9.5-9.7H23.1v-19.4C23.1,79.6,78.7,23,147.1,23h164.2c-34,24.8-64,76.3-66.7,145.7h-15.5
	c-5.3,0-9.5,4.3-9.5,9.7c0,5.4,4.3,9.7,9.5,9.7h15.3v230.2l-25-23.7c-3.7-3.5-9.3-3.5-13,0l-34.3,32.5l-31.6-32.2
	c-3.7-3.8-9.8-3.8-13.5,0l-31.6,32.2L61,394.6c-3.7-3.5-9.3-3.5-13,0l-25,23.7V324c0-5.4-4.3-9.7-9.5-9.7S4,318.7,4,324v116.5
	c0,3.9,2.3,7.4,5.7,8.9c3.5,1.5,7.5,0.8,10.3-1.8L54.6,415l34.5,32.7c3.8,3.6,9.6,3.5,13.2-0.2l31.4-32l31.4,32
	c3.6,3.7,9.5,3.8,13.2,0.2l34.5-32.7l34.5,32.7c2.8,2.6,6.8,3.3,10.3,1.8c3.5-1.5,5.7-5,5.7-8.9v-87.4h104.9
	c78.4,0,124-92.6,124-174.8C492.3,95.8,446.5,3.6,368.3,3.6z M263.4,333.7v-61.9c10.7,23.9,26.7,46.5,47.8,61.9H263.4z M368.3,333.7
	c-57.8,0-104.9-69.7-104.9-155.4C263.4,92.7,310.5,23,368.3,23h0c57.8,0,104.9,69.7,104.9,155.4S426.2,333.7,368.3,333.7z"/>
<path class="st0" d="M362.3,90.3c-28,0-50,35.1-50,80s22,80,50,80s50-35.1,50-80S390.4,90.3,362.3,90.3z M362.3,230.3
	c-14.2,0-30-24.6-30-60s15.8-60,30-60s30,24.6,30,60S376.5,230.3,362.3,230.3z"/>
<path class="st0" d="M176.6,180.3c5.5,0,10-4.5,10-10s-4.5-10-10-10h-40.3c-5.5,0-10,4.5-10,10s4.5,10,10,10H176.6z"/>
<path class="st0" d="M96.6,180.3c5.5,0,10-4.5,10-10s-4.5-10-10-10H56.3c-5.5,0-10,4.5-10,10s4.5,10,10,10H96.6z"/>
<path class="st0" d="M26.3,281.3c0,5.5-4.5,10-10,10s-10-4.5-10-10s4.5-10,10-10S26.3,275.7,26.3,281.3z"/>
</svg>
