<?xml version="1.0" encoding="utf-8"?>
<!-- Generator: Adobe Illustrator 23.0.4, SVG Export Plug-In . SVG Version: 6.00 Build 0)  -->
<svg version="1.1" id="Capa_1" xmlns="http://www.w3.org/2000/svg" xmlns:xlink="http://www.w3.org/1999/xlink" x="0px" y="0px"
	 viewBox="0 0 710 710" style="enable-background:new 0 0 710 710;" xml:space="preserve">
<style type="text/css">
	.st0{fill:#1BB1C3;}
	.st1{font-family:'KohinoorDevanagari-Bold';}
	.st2{font-size:65.5901px;}
</style>
<path class="st0" d="M463.5,71H242.2c-78.9,0-143.1,65.3-143.1,145.7v97.1c0,5.4,4.3,9.7,9.5,9.7s9.5-4.3,9.5-9.7v-58.3h15.5
	c5.3,0,9.5-4.3,9.5-9.7c0-5.4-4.3-9.7-9.5-9.7h-15.5v-19.4c0-69.6,55.6-126.2,124-126.2h164.2c-34,24.8-64,76.3-66.7,145.7h-15.5
	c-5.3,0-9.5,4.3-9.5,9.7c0,5.4,4.3,9.7,9.5,9.7h15.3v230.2l-25-23.7c-3.7-3.5-9.3-3.5-13,0l-34.3,32.5l-31.6-32.2
	c-3.7-3.8-9.8-3.8-13.5,0l-31.6,32.2L156.2,462c-3.7-3.5-9.3-3.5-13,0l-25,23.7v-94.2c0-5.4-4.3-9.7-9.5-9.7s-9.5,4.4-9.5,9.7v116.5
	c0,3.9,2.3,7.4,5.7,8.9c3.5,1.5,7.5,0.8,10.3-1.8l34.5-32.7l34.5,32.7c3.8,3.6,9.6,3.5,13.2-0.2l31.4-32l31.4,32
	c3.6,3.7,9.5,3.8,13.2,0.2l34.5-32.7l34.5,32.7c2.8,2.6,6.8,3.3,10.3,1.8c3.5-1.5,5.7-5,5.7-8.9v-87.4h104.9
	c78.4,0,124-92.6,124-174.8C587.5,163.1,541.6,71,463.5,71z M358.5,401.1v-61.9c10.7,23.9,26.7,46.5,47.8,61.9H358.5z M463.5,401.1
	c-57.8,0-104.9-69.7-104.9-155.4c0-85.6,47.1-155.3,104.9-155.4h0c57.8,0,104.9,69.7,104.9,155.4S521.3,401.1,463.5,401.1z"/>
<path class="st0" d="M457.5,157.6c-28,0-50,35.1-50,80s22,80,50,80s50-35.1,50-80S485.5,157.6,457.5,157.6z M457.5,297.6
	c-14.2,0-30-24.6-30-60s15.8-60,30-60s30,24.6,30,60S471.6,297.6,457.5,297.6z"/>
<path class="st0" d="M271.8,247.6c5.5,0,10-4.5,10-10s-4.5-10-10-10h-40.3c-5.5,0-10,4.5-10,10s4.5,10,10,10H271.8z"/>
<path class="st0" d="M191.8,247.6c5.5,0,10-4.5,10-10s-4.5-10-10-10h-40.3c-5.5,0-10,4.5-10,10s4.5,10,10,10H191.8z"/>
<path class="st0" d="M121.5,348.6c0,5.5-4.5,10-10,10s-10-4.5-10-10s4.5-10,10-10S121.5,343.1,121.5,348.6z"/>
<text transform="matrix(0.9532 0 0 1 181.3188 621.174)" class="st0 st1 st2">Essesntials</text>
</svg>
