<?xml version="1.0" encoding="utf-8"?>
<!-- Generator: Adobe Illustrator 23.0.4, SVG Export Plug-In . SVG Version: 6.00 Build 0)  -->
<svg version="1.1" id="Capa_1" xmlns="http://www.w3.org/2000/svg" xmlns:xlink="http://www.w3.org/1999/xlink" x="0px" y="0px"
	 viewBox="0 0 484.1 400.9" style="enable-background:new 0 0 484.1 400.9;" xml:space="preserve">
<style type="text/css">
	.st0{fill:#1BB1C3;}
</style>
<g>
	<g>
		<path class="st0" d="M484,325.6c-1.7-2.7-4.7-4.2-7.9-4.2h-38.4c2.2-8.1,2.7-17,1.4-26.8c-3-22.6-23.4-42.9-57.6-57
			c-25.6-10.6-58.3-17.6-95.9-20.6c-0.1,0-0.2,0-0.3,0c-14.4-1.2-29.5-1.8-45.2-1.8c-13.2,0-26,0.4-38.3,1.2c-0.1,0-0.2,0-0.4,0
			c-40.5,2.7-75.6,9.9-102.8,21.1c-34.2,14.1-54.7,34.4-57.6,57c-1.3,9.8-0.8,18.8,1.4,26.8H12.3c-3.2,0-6.1,1.6-7.9,4.2
			c-1.7,2.7-2,6-0.8,8.9c1.1,2.6,27.7,63,70.9,63h219.2c5.2,0,9.4-4.2,9.4-9.4c0-5.2-4.2-9.4-9.4-9.4H74.6
			c-19.6,0-36.9-21.8-46.8-38.4h432.8c-9.9,16.7-27.2,38.4-46.8,38.4h-45.4c-5.2,0-9.4,4.2-9.4,9.4c0,5.2,4.2,9.4,9.4,9.4h45.4
			c43.3,0,69.8-60.4,70.9-63C486.1,331.6,485.8,328.3,484,325.6L484,325.6z M59.7,297c2.4-18.8,26.2-37.6,69.1-49.8l46.6,39.6
			c1.8,1.5,3.9,2.2,6.1,2.2c2.7,0,5.3-1.1,7.2-3.3c3.4-4,2.9-9.9-1.1-13.3l-36-30.6c14.3-2.8,30.1-5,47.5-6.3l58.9,51.2
			c1.8,1.6,4,2.3,6.2,2.3c2.6,0,5.3-1.1,7.1-3.2c3.4-3.9,3-9.9-0.9-13.3l-44.1-38.3c4.5-0.1,9.2-0.2,13.9-0.2
			c14.4,0,27.9,0.5,40.6,1.5l59.8,51.3c1.8,1.5,4,2.3,6.1,2.3c2.7,0,5.3-1.1,7.2-3.3c3.4-4,2.9-9.9-1-13.3l-38.7-33.2
			c66.5,10.3,103.3,34.1,106.4,57.7c1.2,9.5,0.3,17.6-2.7,24.4H62.4C59.4,314.6,58.5,306.5,59.7,297L59.7,297z"/>
		<path class="st0" d="M310.5,143.6c0,20.5-12.9,35.8-13.1,36.2c-3.4,3.9-3,9.9,0.9,13.3c1.8,1.6,4,2.3,6.2,2.3
			c2.6,0,5.2-1.1,7.1-3.2c0.7-0.8,17.8-20.6,17.8-48.6S312.3,95.8,311.6,95c-0.1-0.2-13.1-15.5-13.1-36.2c0-5.2-4.2-9.4-9.4-9.4
			c-5.2,0-9.4,4.2-9.4,9.4c0,27.9,17.1,47.7,17.8,48.6C297.6,107.6,310.5,123,310.5,143.6L310.5,143.6z"/>
		<path class="st0" d="M248.6,143.6c0,20.6-12.9,35.9-13.1,36.2c-3.4,3.9-3,9.9,0.9,13.3c1.8,1.6,4,2.3,6.2,2.3
			c2.6,0,5.2-1.1,7.1-3.2c0.7-0.8,17.8-20.6,17.8-48.6S250.4,95.8,249.7,95c-0.1-0.2-13.1-15.5-13.1-36.2s13-36,13.1-36.1
			c3.4-3.9,3-9.9-0.9-13.3s-9.9-3-13.3,0.9c-0.7,0.8-17.8,20.6-17.8,48.6s17.1,47.7,17.8,48.6C235.6,107.6,248.6,123,248.6,143.6
			L248.6,143.6z"/>
		<path class="st0" d="M186.7,143.6c0,3.2-0.3,6.5-0.9,9.8c-1,5.1,2.4,10.1,7.5,11c0.6,0.1,1.2,0.2,1.8,0.2c4.4,0,8.4-3.1,9.2-7.7
			c0.8-4.4,1.3-8.9,1.3-13.3c0-27.9-17.1-47.7-17.8-48.5c-0.1-0.2-13.1-15.5-13.1-36.2c0-5.2-4.2-9.4-9.4-9.4s-9.4,4.2-9.4,9.4
			c0,27.9,17.1,47.7,17.8,48.5C173.7,107.5,186.7,122.9,186.7,143.6z"/>
		<path class="st0" d="M186.7,178.1c-7.1-4.7-16.6,2.1-14.3,10.4c1.1,3.9,4.6,6.7,8.6,6.9c4,0.2,7.8-2.3,9.2-6
			C191.8,185.2,190.3,180.5,186.7,178.1L186.7,178.1z"/>
		<path class="st0" d="M340.2,384.4c-3.3-8.1-15.4-7.3-17.8,1.1c-2.3,8.2,7.2,15.1,14.3,10.3C340.4,393.4,341.9,388.5,340.2,384.4z"
			/>
	</g>
</g>
<path class="st0" d="M467.1,331.8c-2.6,0-5.2,1.1-7.1,2.9c-1.9,1.9-2.9,4.4-2.9,7.1s1.1,5.2,2.9,7.1c1.9,1.9,4.4,2.9,7.1,2.9
	c2.6,0,5.2-1.1,7.1-2.9c1.9-1.9,2.9-4.4,2.9-7.1s-1.1-5.2-2.9-7.1C472.3,332.9,469.7,331.8,467.1,331.8z"/>
</svg>
