<?xml version="1.0" encoding="utf-8"?>
<!-- Generator: Adobe Illustrator 24.2.0, SVG Export Plug-In . SVG Version: 6.00 Build 0)  -->
<svg version="1.1" id="Layer_1" xmlns="http://www.w3.org/2000/svg" xmlns:xlink="http://www.w3.org/1999/xlink" x="0px" y="0px"
	 viewBox="0 0 422 177" style="enable-background:new 0 0 422 177;" xml:space="preserve">
<style type="text/css">
	.st0{fill:none;stroke:#000000;}
	.st1{fill:none;}
	.st2{stroke:#8B8B94;}
	.st3{font-family:'CancunPlain';}
	.st4{font-size:60px;}
	.st5{font-family:'Albertus-ExtraBold';}
	.st6{font-size:36px;}
</style>
<line class="st1" x1="-635.5" y1="-38.92" x2="-635.5" y2="-247.25"/>
<rect x="0.5" y="10.5" class="st0" width="421" height="185"/>
<rect x="27" y="46.58" class="st1" width="368.75" height="97.92"/>
<text transform="matrix(1 0 0 1 27 90.3228)" class="st2 st3 st4">#CfC2020</text>
<rect x="18.67" y="119.5" class="st1" width="381.25" height="45.83"/>
<text transform="matrix(1 0 0 1 18.6665 146.8599)" class="st5 st6">  Call for Code 2020</text>
<g>
	<g>
		<path d="M37.42,103.93c44.02,0.63,88.04,0.96,132.06,0.99c43.8,0.02,87.59-0.26,131.39-0.84c24.7-0.33,49.41-0.76,74.11-1.28
			c1.93-0.04,1.93-3.04,0-3c-44.01,0.93-88.03,1.55-132.05,1.87c-43.8,0.32-87.59,0.33-131.39,0.04
			c-24.71-0.16-49.41-0.42-74.11-0.78C35.49,100.9,35.49,103.9,37.42,103.93L37.42,103.93z"/>
	</g>
</g>
<g>
	<g>
		<path d="M-183.42-364.5c1.93,0,1.93-3,0-3C-185.35-367.5-185.35-364.5-183.42-364.5L-183.42-364.5z"/>
	</g>
</g>
<g>
	<g>
		<path d="M-183.42-364.5c1.93,0,1.93-3,0-3C-185.35-367.5-185.35-364.5-183.42-364.5L-183.42-364.5z"/>
	</g>
</g>
<g>
	<g>
		<path d="M-183.42-364.5c1.93,0,1.93-3,0-3C-185.35-367.5-185.35-364.5-183.42-364.5L-183.42-364.5z"/>
	</g>
</g>
<g>
	<g>
		<path d="M62.42,14.25c1.93,0,1.93-3,0-3C60.49,11.25,60.48,14.25,62.42,14.25L62.42,14.25z"/>
	</g>
</g>
<g>
	<g>
		<path d="M-335.5-143.67c1.93,0,1.93-3,0-3C-337.43-146.67-337.43-143.67-335.5-143.67L-335.5-143.67z"/>
	</g>
</g>
<g>
	<g>
		<path d="M-193.83-347.83c1.93,0,1.93-3,0-3C-195.76-350.83-195.77-347.83-193.83-347.83L-193.83-347.83z"/>
	</g>
</g>
<g>
	<g>
		<path d="M-400.08,181.33c1.93,0,1.93-3,0-3C-402.01,178.33-402.02,181.33-400.08,181.33L-400.08,181.33z"/>
	</g>
</g>
<g>
	<g>
		<path d="M1227,218.83c1.93,0,1.93-3,0-3C1225.07,215.83,1225.07,218.83,1227,218.83L1227,218.83z"/>
	</g>
</g>
<path class="st1" d="M-465,359"/>
</svg>
