<?xml version="1.0" encoding="utf-8"?>
<!-- Generator: Adobe Illustrator 23.0.4, SVG Export Plug-In . SVG Version: 6.00 Build 0)  -->
<svg version="1.1" id="Capa_1" xmlns="http://www.w3.org/2000/svg" xmlns:xlink="http://www.w3.org/1999/xlink" x="0px" y="0px"
	 viewBox="0 0 710 710" style="enable-background:new 0 0 710 710;" xml:space="preserve">
<style type="text/css">
	.st0{fill:#1BB1C3;}
	.st1{font-family:'KohinoorDevanagari-Bold';}
	.st2{font-size:65.5901px;}
</style>
<g>
	<g>
		<path class="st0" d="M232.9,173.5c-5.5,0-10,4.5-10,10s4.5,10,10,10s10-4.5,10-10S238.4,173.5,232.9,173.5z"/>
	</g>
</g>
<g>
	<g>
		<path class="st0" d="M322.8,360.5h-30v-30c0-5.5-4.5-10-10-10s-10,4.5-10,10v30h-30c-5.5,0-10,4.5-10,10s4.5,10,10,10h30v30
			c0,5.5,4.5,10,10,10s10-4.5,10-10v-30h30c5.5,0,10-4.5,10-10S328.4,360.5,322.8,360.5z"/>
	</g>
</g>
<g>
	<g>
		<path class="st0" d="M592.7,369.5c-22.1-38.3-71-51.4-109.3-29.3l-40.6,23.5v-86.8c0-10.7-3.5-21.4-10-30l-50-66.7v-28.4
			c11.6-4.1,20-15.2,20-28.3v-46c0-16.5-13.5-30-30-30h-180c-16.5,0-30,13.5-30,30v46c0,13,8.4,24.2,20,28.3v28.4l-50,66.7
			c-6.4,8.6-10,19.3-10,30v193.7c0,27.6,22.4,50,50,50h160.7c22.4,37.6,70.8,50.2,108.7,28.3l121.2-70
			C601.4,456.8,615,408,592.7,369.5z M182.9,77.5c0-5.5,4.5-10,10-10h180c5.5,0,10,4.5,10,10v46c0,5.5-4.5,10-10,10h-180
			c-5.5,0-10-4.5-10-10L182.9,77.5L182.9,77.5z M148.9,258.8l52-69.3c1.3-1.7,2-3.8,2-6v-30h160v20h-90c-5.5,0-10,4.5-10,10
			s4.5,10,10,10h95l49,65.3c3.2,4.3,5.2,9.4,5.8,14.7H143.1C143.7,268.2,145.7,263.1,148.9,258.8z M172.9,500.5
			c-16.5,0-30-13.5-30-30v-10.1h181.7c-3.2,13-3.1,26.8,0.5,40.1L172.9,500.5L172.9,500.5z M332.4,440.5H142.9v-147h280v81.7
			l-60.6,35C349.6,417.5,339.4,427.9,332.4,440.5z M432.2,531.4c-28.7,16.6-65.4,6.8-81.9-21.9c-16.7-29-6.6-65.5,22-82l54.3-31.3
			l60,103.9L432.2,531.4z M553.5,461.4l-49.6,28.7l-60-103.9l49.6-28.7c28.7-16.6,65.4-6.8,82,22C592.1,408.3,581.9,445,553.5,461.4
			z"/>
	</g>
</g>
<text transform="matrix(0.9532 0 0 1 186.2862 637.6561)" class="st0 st1 st2">Medicine</text>
</svg>
