<?xml version="1.0" encoding="utf-8"?>
<!-- Generator: Adobe Illustrator 23.0.4, SVG Export Plug-In . SVG Version: 6.00 Build 0)  -->
<svg version="1.1" id="Capa_1" xmlns="http://www.w3.org/2000/svg" xmlns:xlink="http://www.w3.org/1999/xlink" x="0px" y="0px"
	 viewBox="0 0 484.1 519.8" style="enable-background:new 0 0 484.1 519.8;" xml:space="preserve">
<style type="text/css">
	.st0{fill:#1BB1C3;}
</style>
<g>
	<g>
		<path class="st0" d="M114,129.9c-5.5,0-10,4.5-10,10s4.5,10,10,10c5.5,0,10-4.5,10-10S119.5,129.9,114,129.9z"/>
	</g>
</g>
<g>
	<g>
		<path class="st0" d="M203.9,316.9h-30v-30c0-5.5-4.5-10-10-10s-10,4.5-10,10v30h-30c-5.5,0-10,4.5-10,10s4.5,10,10,10h30v30
			c0,5.5,4.5,10,10,10s10-4.5,10-10v-30h30c5.5,0,10-4.5,10-10S209.5,316.9,203.9,316.9z"/>
	</g>
</g>
<g>
	<g>
		<path class="st0" d="M473.8,325.9c-22.1-38.3-71-51.4-109.3-29.3L323.9,320v-86.8c0-10.7-3.5-21.4-10-30l-50-66.7v-28.4
			c11.6-4.1,20-15.2,20-28.3v-46c0-16.5-13.5-30-30-30H74c-16.5,0-30,13.5-30,30v46c0,13,8.4,24.2,20,28.3v28.4l-50,66.7
			c-6.4,8.6-10,19.3-10,30v193.7c0,27.6,22.4,50,50,50h160.7c22.4,37.6,70.8,50.2,108.7,28.3l121.2-70
			C482.5,413.2,496.1,364.4,473.8,325.9z M64,33.9c0-5.5,4.5-10,10-10h180c5.5,0,10,4.5,10,10v46c0,5.5-4.5,10-10,10H74
			c-5.5,0-10-4.5-10-10L64,33.9L64,33.9z M30,215.2l52-69.3c1.3-1.7,2-3.8,2-6v-30h160v20h-90c-5.5,0-10,4.5-10,10s4.5,10,10,10h95
			l49,65.3c3.2,4.3,5.2,9.4,5.8,14.7H24.2C24.8,224.6,26.8,219.5,30,215.2z M54,456.9c-16.5,0-30-13.5-30-30v-10.1h181.7
			c-3.2,13-3.1,26.8,0.5,40.1L54,456.9L54,456.9z M213.5,396.9H24v-147h280v81.7l-60.6,35C230.7,373.9,220.5,384.3,213.5,396.9z
			 M313.3,487.8c-28.7,16.6-65.4,6.8-81.9-21.9c-16.7-29-6.6-65.5,22-82l54.3-31.3l60,103.9L313.3,487.8z M434.6,417.8l-49.6,28.7
			l-60-103.9l49.6-28.7c28.7-16.6,65.4-6.8,82,22C473.2,364.7,463,401.4,434.6,417.8z"/>
	</g>
</g>
</svg>
