<?xml version="1.0" encoding="utf-8"?>
<!-- Generator: Adobe Illustrator 23.0.4, SVG Export Plug-In . SVG Version: 6.00 Build 0)  -->
<svg version="1.1" id="Capa_1" xmlns="http://www.w3.org/2000/svg" xmlns:xlink="http://www.w3.org/1999/xlink" x="0px" y="0px"
	 viewBox="0 0 452.4 511.8" style="enable-background:new 0 0 452.4 511.8;" xml:space="preserve">
<style type="text/css">
	.st0{fill:#1BB1C3;}
</style>
<path class="st0" d="M448.5,74.5c0-17-13.8-30.8-30.8-30.8c-4.2,0-8.1,0.8-11.8,2.3c-3-13.8-15.3-24.3-30.1-24.3
	c-4.4,0-8.5,0.9-12.3,2.6C359.9,11.5,348.1,2,334,2c-14,0-25.9,9.5-29.6,22.4c-3.8-1.6-7.9-2.6-12.3-2.6c-17,0-30.8,13.8-30.8,30.8
	v77.1c-7-7.4-17.5-11.3-28.2-9.4c-8.3,1.5-15.6,6.1-20.3,13.1c-0.5,0.7-1,1.5-1.4,2.3c-4.2-2.2-8.9-3.5-14-3.5
	c-3.8,0-7.4,0.7-10.7,2c-3.1-13-14.8-22.6-28.7-22.6c-3.9,0-7.7,0.8-11.2,2.2c-3.7-12-15-20.8-28.2-20.8s-24.5,8.8-28.2,20.8
	c-3.4-1.4-7.2-2.2-11.2-2.2c-16.3,0-29.5,13.3-29.5,29.5v71.1c-6.7-6.5-16.3-9.7-26-8c-8,1.4-14.9,5.9-19.5,12.6s-6.3,14.8-4.7,22.7
	L9.9,292c4.1,20.8,14.2,39.8,29.3,54.8l18.4,18.4v31.4H47.2c-5.4,0-9.8,4.4-9.8,9.8v88.3c0,5.4,4.4,9.8,9.8,9.8
	c5.4,0,9.8-4.4,9.8-9.8v-78.5h128.1v78.5c0,5.4,4.4,9.8,9.8,9.8s9.8-4.4,9.8-9.8v-88.3c0-5.4-4.4-9.8-9.8-9.8h-10.1v-31.4l10.9-10.9
	c20.2-20.1,31.3-46.9,31.3-75.4v-41.1c5.6,12.2,13.3,23.3,22.9,32.9l19.8,19.7v38.4H258c-5.4,0-9.8,4.4-9.8,9.8v156
	c0,5.4,4.4,9.8,9.8,9.8c5.4,0,9.8-4.4,9.8-9.8v-107h47.5c5.4,0,9.8-4.4,9.8-9.8s-4.4-9.8-9.8-9.8h-47.5v-19.6h137.4v146.2
	c0,5.4,4.4,9.8,9.8,9.8c5.4,0,9.8-4.4,9.8-9.8v-156c0-5.4-4.4-9.8-9.8-9.8h-11.4v-38.4l11.8-11.7c21.3-21.3,33.1-49.6,33.1-79.7
	v-10.2c0-5.4-4.4-9.8-9.8-9.8c-5.4,0-9.8,4.4-9.8,9.8V199c0,24.9-9.7,48.2-27.3,65.8l-14.6,14.6c-1.8,1.8-2.9,4.3-2.9,7v42.5h-94.7
	v-42.5c0-2.6-1-5.1-2.9-7l-22.7-22.6c-13.1-13.1-22-29.6-25.5-47.8l-11-55.7c-0.6-3.1,0-6.2,1.8-8.8c1.8-2.6,4.5-4.3,7.6-4.9
	c6-1.1,11.8,2.7,13.3,8.7l5.7,23.1c1.6,6.4,7.5,10.5,14.1,9.7c6.6-0.8,11.4-6.2,11.4-12.8V52.6c0-6.1,5-11.1,11.1-11.1
	c5.7,0,10.5,4.3,11.1,9.9v64.5c0,0.4,0,0.8,0.1,1.2v6.3c0,5.4,4.4,9.8,9.8,9.8s9.8-4.4,9.8-9.8V52.6c0-0.7,0-1.4-0.1-2V32.8
	c0-6.1,5-11.1,11.1-11.1c6.1,0,11.1,5,11.1,11.1v17.8c0,0.7-0.1,1.3-0.1,2v63.3c0,0.4,0,0.8,0.1,1.2v6.3c0,5.4,4.4,9.8,9.8,9.8
	c5.4,0,9.8-4.4,9.8-9.8v-72c0.6-5.6,5.3-9.9,11.1-9.9c6.1,0,11.1,5,11.1,11.1v19.9c0,0.7-0.1,1.3-0.1,2v41.4c0,0.4,0,0.8,0.1,1.2
	v6.3c0,5.4,4.4,9.8,9.8,9.8c5.4,0,9.8-4.4,9.8-9.8V73.3c0.6-5.6,5.4-9.9,11.1-9.9c6.1,0,11.2,5,11.2,11.2v35.8
	c0,5.4,4.4,9.8,9.8,9.8c5.4,0,9.8-4.4,9.8-9.8L448.5,74.5L448.5,74.5z M207.4,278.9c0,23.2-9.1,45.1-25.5,61.5l-13.8,13.7
	c-1.8,1.8-2.9,4.3-2.9,7v35.5h-88v-35.5c0-2.6-1-5.1-2.9-7L53,332.9c-12.3-12.2-20.5-27.7-23.9-44.7l-10.3-52.4
	c-0.5-2.7,0-5.5,1.6-7.8c1.6-2.3,4-3.9,6.7-4.3c5.4-0.9,10.6,2.5,11.8,7.7l5.3,21.8c1.6,6.3,7.4,10.4,13.9,9.6
	c6.5-0.8,11.2-6.1,11.2-12.6V141.2c0-5.5,4.4-9.9,9.9-9.9c5.1,0,9.3,3.8,9.8,8.8v60.7c0,0.4,0,0.8,0.1,1.1v5.9
	c0,5.4,4.4,9.8,9.8,9.8c5.4,0,9.8-4.4,9.8-9.8v-66.5c0-0.6,0-1.3-0.1-1.9v-16.7c0-5.5,4.4-9.9,9.9-9.9c5.5,0,9.9,4.4,9.9,9.9v16.7
	c0,0.6-0.1,1.3-0.1,1.9v59.5c0,0.4,0,0.8,0.1,1.1v5.9c0,5.4,4.4,9.8,9.8,9.8s9.8-4.4,9.8-9.8V140c0.6-4.9,4.8-8.8,9.8-8.8
	c5.5,0,9.9,4.4,9.9,9.9v18.7c0,0.6-0.1,1.3-0.1,1.9v38.9c0,0.4,0,0.8,0.1,1.1v5.9c0,5.4,4.4,9.8,9.8,9.8c5.4,0,9.8-4.4,9.8-9.8
	v-47.1c0.6-4.9,4.8-8.8,9.8-8.8c5.5,0,9.9,4.4,9.9,9.9V278.9z"/>
<path class="st0" d="M440,136.3c-2.6,0-5.2,1.1-7.1,2.9c-1.9,1.9-2.9,4.4-2.9,7.1c0,2.6,1.1,5.2,2.9,7.1c1.9,1.9,4.4,2.9,7.1,2.9
	c2.6,0,5.2-1.1,7.1-2.9c1.9-1.9,2.9-4.4,2.9-7.1c0-2.6-1.1-5.2-2.9-7.1C445.2,137.4,442.6,136.3,440,136.3z"/>
</svg>
