<?xml version="1.0" encoding="utf-8"?>
<!-- Generator: Adobe Illustrator 23.0.4, SVG Export Plug-In . SVG Version: 6.00 Build 0)  -->
<svg version="1.1" id="Capa_1" xmlns="http://www.w3.org/2000/svg" xmlns:xlink="http://www.w3.org/1999/xlink" x="0px" y="0px"
	 viewBox="0 0 710 710" style="enable-background:new 0 0 710 710;" xml:space="preserve">
<style type="text/css">
	.st0{fill:#1BB1C3;}
	.st1{font-family:'KohinoorDevanagari-Bold';}
	.st2{font-size:65.5901px;}
</style>
<path class="st0" d="M496.1,114.2c0-17-13.8-30.8-30.8-30.8c-4.2,0-8.1,0.8-11.8,2.3c-3-13.8-15.3-24.3-30.1-24.3
	c-4.4,0-8.5,0.9-12.3,2.6c-3.7-12.9-15.5-22.4-29.6-22.4c-14,0-25.9,9.5-29.6,22.4c-3.8-1.6-7.9-2.6-12.3-2.6
	c-17,0-30.8,13.8-30.8,30.8v77.1c-7-7.4-17.5-11.3-28.2-9.4c-8.3,1.5-15.6,6.1-20.3,13.1c-0.5,0.7-1,1.5-1.4,2.3
	c-4.2-2.2-8.9-3.5-14-3.5c-3.8,0-7.4,0.7-10.7,2c-3.1-13-14.8-22.6-28.7-22.6c-3.9,0-7.7,0.8-11.2,2.2c-3.7-12-15-20.8-28.2-20.8
	c-13.3,0-24.5,8.8-28.2,20.8c-3.4-1.4-7.2-2.2-11.2-2.2c-16.3,0-29.5,13.3-29.5,29.5v71.1c-6.7-6.5-16.3-9.7-26-8
	c-8,1.4-14.9,5.9-19.5,12.6c-4.6,6.7-6.3,14.8-4.7,22.7l10.3,52.4c4.1,20.8,14.2,39.8,29.3,54.8l18.4,18.4v31.4H94.8
	c-5.4,0-9.8,4.4-9.8,9.8v88.3c0,5.4,4.4,9.8,9.8,9.8c5.4,0,9.8-4.4,9.8-9.8v-78.5h128.1v78.5c0,5.4,4.4,9.8,9.8,9.8s9.8-4.4,9.8-9.8
	V446c0-5.4-4.4-9.8-9.8-9.8h-10.1v-31.4l10.9-10.9c20.2-20.1,31.3-46.9,31.3-75.4v-41.1c5.6,12.2,13.3,23.3,22.9,32.9l19.8,19.7
	v38.4h-11.7c-5.4,0-9.8,4.4-9.8,9.8v156c0,5.4,4.4,9.8,9.8,9.8c5.4,0,9.8-4.4,9.8-9.8v-107h47.5c5.4,0,9.8-4.4,9.8-9.8
	c0-5.4-4.4-9.8-9.8-9.8h-47.5v-19.6h137.4v146.2c0,5.4,4.4,9.8,9.8,9.8c5.4,0,9.8-4.4,9.8-9.8v-156c0-5.4-4.4-9.8-9.8-9.8h-11.4
	v-38.4l11.8-11.7c21.3-21.3,33.1-49.6,33.1-79.7v-10.2c0-5.4-4.4-9.8-9.8-9.8c-5.4,0-9.8,4.4-9.8,9.8v10.2
	c0,24.9-9.7,48.2-27.3,65.8l-14.6,14.6c-1.8,1.8-2.9,4.3-2.9,7v42.5h-94.7V326c0-2.6-1-5.1-2.9-7l-22.7-22.6
	c-13.1-13.1-22-29.6-25.5-47.8l-11-55.7c-0.6-3.1,0-6.2,1.8-8.8c1.8-2.6,4.5-4.3,7.6-4.9c6-1.1,11.8,2.7,13.3,8.7l5.7,23.1
	c1.6,6.4,7.5,10.5,14.1,9.7c6.6-0.8,11.4-6.2,11.4-12.8V92.3c0-6.1,5-11.1,11.1-11.1c5.7,0,10.5,4.3,11.1,9.9v64.5
	c0,0.4,0,0.8,0.1,1.2v6.3c0,5.4,4.4,9.8,9.8,9.8s9.8-4.4,9.8-9.8V92.3c0-0.7,0-1.4-0.1-2V72.5c0-6.1,5-11.1,11.1-11.1
	c6.1,0,11.1,5,11.1,11.1v17.8c0,0.7-0.1,1.3-0.1,2v63.3c0,0.4,0,0.8,0.1,1.2v6.3c0,5.4,4.4,9.8,9.8,9.8c5.4,0,9.8-4.4,9.8-9.8V91
	c0.6-5.6,5.3-9.9,11.1-9.9c6.1,0,11.1,5,11.1,11.1v19.9c0,0.7-0.1,1.3-0.1,2v41.4c0,0.4,0,0.8,0.1,1.2v6.3c0,5.4,4.4,9.8,9.8,9.8
	c5.4,0,9.8-4.4,9.8-9.8v-50.1c0.6-5.6,5.4-9.9,11.1-9.9c6.1,0,11.2,5,11.2,11.2V150c0,5.4,4.4,9.8,9.8,9.8c5.4,0,9.8-4.4,9.8-9.8
	L496.1,114.2L496.1,114.2z M254.9,318.5c0,23.2-9.1,45.1-25.5,61.5l-13.8,13.7c-1.8,1.8-2.9,4.3-2.9,7v35.5h-88v-35.5
	c0-2.6-1-5.1-2.9-7l-21.3-21.3c-12.3-12.2-20.5-27.7-23.9-44.7l-10.3-52.4c-0.5-2.7,0-5.5,1.6-7.8c1.6-2.3,4-3.9,6.7-4.3
	c5.4-0.9,10.6,2.5,11.8,7.7l5.3,21.8c1.6,6.3,7.4,10.4,13.9,9.6c6.5-0.8,11.2-6.1,11.2-12.6V180.8c0-5.5,4.4-9.9,9.9-9.9
	c5.1,0,9.3,3.8,9.8,8.8v60.7c0,0.4,0,0.8,0.1,1.1v5.9c0,5.4,4.4,9.8,9.8,9.8c5.4,0,9.8-4.4,9.8-9.8v-66.5c0-0.6,0-1.3-0.1-1.9v-16.7
	c0-5.5,4.4-9.9,9.9-9.9c5.5,0,9.9,4.4,9.9,9.9v16.7c0,0.6-0.1,1.3-0.1,1.9v59.5c0,0.4,0,0.8,0.1,1.1v5.9c0,5.4,4.4,9.8,9.8,9.8
	s9.8-4.4,9.8-9.8v-67.7c0.6-4.9,4.8-8.8,9.8-8.8c5.5,0,9.9,4.4,9.9,9.9v18.7c0,0.6-0.1,1.3-0.1,1.9v38.9c0,0.4,0,0.8,0.1,1.1v5.9
	c0,5.4,4.4,9.8,9.8,9.8c5.4,0,9.8-4.4,9.8-9.8v-47.1c0.6-4.9,4.8-8.8,9.8-8.8c5.5,0,9.9,4.4,9.9,9.9V318.5z"/>
<path class="st0" d="M487.6,176c-2.6,0-5.2,1.1-7.1,2.9c-1.9,1.9-2.9,4.4-2.9,7.1c0,2.6,1.1,5.2,2.9,7.1c1.9,1.9,4.4,2.9,7.1,2.9
	c2.6,0,5.2-1.1,7.1-2.9c1.9-1.9,2.9-4.4,2.9-7.1c0-2.6-1.1-5.2-2.9-7.1C492.8,177,490.2,176,487.6,176z"/>
<text transform="matrix(0.9532 0 0 1 201.4701 623.6643)" class="st0 st1 st2">Other</text>
</svg>
